<svg width="110" height="42" viewBox="0 0 110 42" fill="none" xmlns="http://www.w3.org/2000/svg">
<path d="M23.9551 1.00098C24.7689 1.04981 25.4525 1.0905 26.0059 1.12305C26.5755 1.13933 27.0475 1.1556 27.4219 1.17188C27.8451 1.18815 28.2031 1.18815 28.4961 1.17188C28.7891 1.1556 29.1878 1.11491 29.6924 1.04981C30.1156 1.00098 30.6771 0.92774 31.377 0.83008C32.0931 0.71615 32.9801 0.56966 34.0381 0.39063C33.6637 0.76498 33.3708 1.10677 33.1592 1.41602C32.9639 1.70899 32.8092 1.96127 32.6953 2.17285C32.5651 2.43327 32.4756 2.653 32.4268 2.83203C32.3942 2.99479 32.4268 3.4017 32.5244 4.0527C32.6221 4.7038 32.7604 5.4769 32.9395 6.3721C33.1185 7.251 33.3138 8.195 33.5254 9.2041C33.737 10.1969 33.9486 11.1328 34.1602 12.0117C34.3717 12.8744 34.5589 13.6149 34.7217 14.2334C34.9007 14.8356 35.0309 15.1937 35.1123 15.3076C35.3564 15.6494 35.5111 15.8773 35.5762 15.9912C35.6413 16.0889 35.7552 16.1784 35.918 16.2598C35.9831 16.2923 36.0889 16.3411 36.2354 16.4063C36.3656 16.4714 36.5365 16.5527 36.748 16.6504C36.9759 16.7481 37.2607 16.862 37.6025 16.9922C36.9678 17.0247 36.4225 17.0492 35.9668 17.0654C35.5111 17.0654 35.1367 17.0736 34.8438 17.0898C34.502 17.1061 34.209 17.1224 33.9648 17.1387C33.7207 17.1387 33.4277 17.155 33.0859 17.1875C32.793 17.2201 32.4105 17.2526 31.9385 17.2852C31.4827 17.3177 30.9456 17.3503 30.3271 17.3828C30.6527 17.155 30.9131 16.9515 31.1084 16.7725C31.32 16.5772 31.4827 16.4144 31.5967 16.2842C31.7269 16.1214 31.8164 15.9749 31.8652 15.8447C31.8978 15.6982 31.9222 15.4785 31.9385 15.1855C31.9548 14.9251 31.9548 14.5833 31.9385 14.1602C31.9222 13.7207 31.8815 13.151 31.8164 12.4512L25.3955 13.1104C25.2327 13.387 25.1107 13.6312 25.0293 13.8428C24.9479 14.0381 24.891 14.209 24.8584 14.3555C24.8096 14.5345 24.7933 14.681 24.8096 14.7949C24.8421 14.9251 24.8991 15.0798 24.9805 15.2588C25.0618 15.4216 25.1758 15.6169 25.3223 15.8447C25.485 16.0563 25.721 16.3086 26.0303 16.6016C25.6234 16.5853 25.2083 16.5772 24.7852 16.5772C24.362 16.5772 23.9714 16.5853 23.6133 16.6016C23.1901 16.6178 22.7751 16.6341 22.3682 16.6504C21.9613 16.6667 21.4974 16.6911 20.9766 16.7236C20.5371 16.7562 20.0244 16.7969 19.4385 16.8457C18.8363 16.8783 18.1934 16.9271 17.5098 16.9922C17.9329 16.7969 18.291 16.6016 18.584 16.4063C18.877 16.1947 19.1211 15.9994 19.3164 15.8203C19.5443 15.625 19.7396 15.4378 19.9023 15.2588C20.0163 15.096 20.2441 14.7217 20.5859 14.1357C20.9277 13.5335 21.3102 12.8255 21.7334 12.0117C22.1729 11.1979 22.6286 10.3272 23.1006 9.3994C23.5889 8.4717 24.0283 7.6009 24.4189 6.7871C24.8096 5.957 25.127 5.2409 25.3711 4.6387C25.6152 4.0365 25.7373 3.6458 25.7373 3.4668C25.7048 3.25521 25.6234 3.01921 25.4932 2.75879C25.3792 2.53093 25.2002 2.27051 24.9561 1.97754C24.7282 1.68457 24.3945 1.35905 23.9551 1.00098ZM31.5234 10.6445C31.4258 10.0749 31.3363 9.5866 31.2549 9.1797C31.1735 8.7565 31.1084 8.4066 31.0596 8.1299C30.9945 7.8044 30.9456 7.5195 30.9131 7.2754C30.8643 7.0475 30.8073 6.7546 30.7422 6.3965C30.6771 6.0872 30.5957 5.7048 30.498 5.249C30.4167 4.777 30.3109 4.2155 30.1807 3.5645C29.2529 5.4199 28.5286 6.8604 28.0078 7.8857C27.5033 8.8949 27.137 9.6354 26.9092 10.1074C26.6325 10.6608 26.4779 10.9863 26.4453 11.084L31.5234 10.6445ZM36.2109 0.21973C36.9434 0.34994 37.5456 0.43946 38.0176 0.48828C38.4896 0.53711 38.8721 0.5778 39.165 0.61035C39.5068 0.64291 39.7754 0.65104 39.9707 0.63477H40.7031C40.9635 0.63477 41.2891 0.63477 41.6797 0.63477C42.0866 0.61849 42.5911 0.61035 43.1934 0.61035C43.5352 1.40788 43.8444 2.1403 44.1211 2.80762C44.4141 3.47494 44.6582 4.0446 44.8535 4.5166C45.0814 5.0863 45.293 5.599 45.4883 6.0547C45.7161 6.6244 45.9603 7.251 46.2207 7.9346C46.4811 8.6182 46.7171 9.2611 46.9287 9.8633C47.1566 10.4655 47.3438 10.9619 47.4902 11.3525C47.6367 11.7432 47.71 11.9222 47.71 11.8897C47.71 11.8734 47.7181 11.7106 47.7344 11.4014C47.7507 11.0758 47.7669 10.6771 47.7832 10.2051C47.7995 9.7168 47.8158 9.1878 47.832 8.6182C47.8646 8.0322 47.8809 7.4707 47.8809 6.9336C47.8971 6.3802 47.9053 5.8757 47.9053 5.4199C47.9053 4.9642 47.889 4.6224 47.8564 4.3945C47.8076 4.1178 47.71 3.8005 47.5635 3.44239C47.4333 3.13314 47.2542 2.76693 47.0264 2.34375C46.7985 1.9043 46.4811 1.40788 46.0742 0.8545C46.7415 0.87077 47.2868 0.87891 47.71 0.87891C48.1331 0.87891 48.4749 0.87891 48.7354 0.87891C49.0283 0.87891 49.2562 0.87077 49.4189 0.8545C49.6305 0.8545 49.891 0.83822 50.2002 0.80567C50.4769 0.77312 50.8187 0.7487 51.2256 0.73242C51.6488 0.69987 52.1696 0.65918 52.7881 0.61035C52.43 0.93588 52.1452 1.24512 51.9336 1.53809C51.722 1.83106 51.5511 2.09147 51.4209 2.31934C51.2744 2.57976 51.1768 2.8239 51.1279 3.05176C51.0628 3.34473 51.0059 3.8249 50.957 4.4922C50.9245 5.1432 50.8838 5.8757 50.835 6.6895C50.8024 7.5033 50.7699 8.3496 50.7373 9.2285C50.7048 10.1074 50.6722 10.9131 50.6396 11.6455C50.6396 12.1989 50.6234 12.793 50.5908 13.4277C50.5583 13.9648 50.5257 14.5752 50.4932 15.2588C50.4606 15.9261 50.4199 16.6016 50.3711 17.2852L48.1982 17.334C47.5635 16.2109 47.0264 15.2507 46.5869 14.4531C46.1637 13.6393 45.8138 12.972 45.5371 12.4512C45.2279 11.849 44.9674 11.3444 44.7559 10.9375C44.5768 10.5469 44.3408 10.0993 44.0479 9.5947C43.8037 9.1716 43.4945 8.6507 43.1201 8.0322C42.762 7.4137 42.3307 6.7057 41.8262 5.9082C41.7773 7.0313 41.7529 7.9915 41.7529 8.7891C41.7692 9.5703 41.7936 10.2214 41.8262 10.7422C41.875 11.3444 41.932 11.849 41.9971 12.2559C42.0785 12.6465 42.1924 13.0859 42.3389 13.5742C42.4691 13.9974 42.6237 14.4938 42.8027 15.0635C42.998 15.6331 43.234 16.276 43.5107 16.9922C42.5505 16.9434 41.8343 16.9189 41.3623 16.9189H40.6299C40.402 16.9189 40.0928 16.9434 39.7021 16.9922C39.3766 17.0247 38.929 17.0736 38.3594 17.1387C37.806 17.2038 37.1143 17.2933 36.2842 17.4072C36.6748 16.9352 36.984 16.5039 37.2119 16.1133C37.4561 15.7064 37.6432 15.3646 37.7734 15.0879C37.9362 14.7624 38.0501 14.4775 38.1152 14.2334C38.1641 13.973 38.1966 13.5254 38.2129 12.8906C38.2292 12.2396 38.2292 11.5072 38.2129 10.6934C38.2129 9.8633 38.1966 8.9925 38.1641 8.0811C38.1478 7.1696 38.1234 6.3232 38.0908 5.542C38.0583 4.7607 38.0176 4.0934 37.9688 3.54C37.9362 2.98666 37.9118 2.64486 37.8955 2.51465C37.8467 2.30306 37.749 2.0752 37.6025 1.83106C37.4723 1.61947 37.3014 1.38347 37.0898 1.12305C36.8783 0.84636 36.5853 0.54525 36.2109 0.21973ZM52.666 0.70801C53.2194 0.77312 53.6833 0.82194 54.0576 0.8545C54.4482 0.87077 54.7656 0.89519 55.0098 0.92774C55.3027 0.96029 55.5306 0.97657 55.6934 0.97657C55.8724 0.99284 56.141 0.9847 56.499 0.95215C56.8083 0.9196 57.2233 0.87891 57.7441 0.83008C58.2812 0.78125 58.9648 0.70801 59.7949 0.61035C59.4206 0.93588 59.1195 1.25326 58.8916 1.5625C58.68 1.85547 58.5173 2.11589 58.4033 2.34375C58.2568 2.62045 58.1673 2.88086 58.1348 3.125C58.0697 3.51563 58.0127 4.0527 57.9639 4.7363C57.9313 5.4036 57.8988 6.1361 57.8662 6.9336C57.8337 7.7311 57.8174 8.5531 57.8174 9.3994C57.8174 10.2458 57.8255 11.0514 57.8418 11.8164C57.8743 12.5651 57.9232 13.2324 57.9883 13.8184C58.0697 14.4043 58.1673 14.8275 58.2812 15.0879C58.444 15.3809 58.6149 15.6738 58.7939 15.9668C58.9567 16.2109 59.152 16.4632 59.3799 16.7236C59.6077 16.9841 59.8682 17.1956 60.1611 17.3584C59.2008 17.3096 58.4359 17.2852 57.8662 17.2852H56.9873C56.7269 17.2852 56.3932 17.3014 55.9863 17.334C55.6445 17.3665 55.2132 17.3991 54.6924 17.4316C54.1715 17.4642 53.5449 17.513 52.8125 17.5781C53.1868 17.1712 53.4798 16.7806 53.6914 16.4063C53.903 16.0319 54.0739 15.7064 54.2041 15.4297C54.3506 15.1042 54.4482 14.7949 54.4971 14.502C54.5622 14.0788 54.611 13.5579 54.6436 12.9395C54.6924 12.3047 54.7249 11.6292 54.7412 10.9131C54.7575 10.1807 54.7575 9.4401 54.7412 8.6914C54.7412 7.9264 54.7249 7.194 54.6924 6.4941C54.6598 5.7943 54.611 5.1595 54.5459 4.5898C54.4971 4.0202 54.432 3.5645 54.3506 3.22266C54.3018 3.01107 54.2041 2.77507 54.0576 2.51465C53.9274 2.28679 53.7484 2.02637 53.5205 1.7334C53.3089 1.42416 53.0241 1.08236 52.666 0.70801ZM60.1611 0.0244203C60.682 0.0406903 61.1377 0.04883 61.5283 0.04883C61.9189 0.03256 62.2363 0.0244203 62.4805 0.0244203H63.1885C63.3675 0.00814026 63.5872 0 63.8477 0C64.0755 0 64.3522 0 64.6777 0C65.0033 0 65.3776 0.00814026 65.8008 0.0244203C65.931 0.48015 66.0775 0.92774 66.2402 1.36719C66.4193 1.79037 66.5739 2.17285 66.7041 2.51465C66.8669 2.92155 67.0296 3.30404 67.1924 3.6621C67.3551 4.0202 67.5505 4.4515 67.7783 4.9561C67.9736 5.3792 68.2096 5.9001 68.4863 6.5186C68.763 7.1208 69.0885 7.8125 69.4629 8.5938C69.6419 8.0892 69.8047 7.6253 69.9512 7.2022C70.1139 6.779 70.2523 6.4128 70.3662 6.1035C70.4964 5.7454 70.6022 5.4199 70.6836 5.127C70.765 4.834 70.8545 4.4759 70.9521 4.0527C71.0335 3.6947 71.123 3.26335 71.2207 2.75879C71.3346 2.25423 71.4486 1.6683 71.5625 1.00098C72.0345 1.00098 72.4577 1.00098 72.832 1.00098C73.2064 1.00098 73.5319 0.99284 73.8086 0.97657C74.1178 0.97657 74.3945 0.96843 74.6387 0.95215C74.8991 0.95215 75.249 0.93588 75.6885 0.90332C76.0628 0.87077 76.5592 0.84636 77.1777 0.83008C77.8125 0.79753 78.5938 0.75684 79.5215 0.70801C79.1797 0.95215 78.903 1.19629 78.6914 1.44043C78.4961 1.6683 78.3415 1.87175 78.2275 2.05078C78.0973 2.26237 78.016 2.46582 77.9834 2.66114C77.9508 2.8239 77.9183 3.19825 77.8857 3.7842C77.8695 4.3701 77.8451 5.07 77.8125 5.8838C77.7962 6.6813 77.7799 7.5358 77.7637 8.4473C77.7637 9.3587 77.7718 10.2214 77.7881 11.0352C77.8044 11.849 77.8288 12.557 77.8613 13.1592C77.9102 13.7451 77.9753 14.1195 78.0566 14.2822C78.1706 14.4775 78.3252 14.7054 78.5205 14.9658C78.6995 15.1937 78.9274 15.4541 79.2041 15.7471C79.4971 16.04 79.8796 16.3656 80.3516 16.7236C79.6029 16.7562 78.9762 16.7806 78.4717 16.7969C77.9834 16.8132 77.5765 16.8294 77.251 16.8457C76.8766 16.862 76.5755 16.8701 76.3477 16.8701C76.1035 16.8701 75.7699 16.8783 75.3467 16.8945C74.9723 16.9108 74.4759 16.9352 73.8574 16.9678C73.2389 16.9841 72.4414 17.0166 71.4648 17.0654C71.6927 16.805 71.9043 16.5446 72.0996 16.2842C72.2949 16.0238 72.4577 15.7878 72.5879 15.5762C72.7507 15.332 72.889 15.096 73.0029 14.8682C73.1169 14.5589 73.2064 13.9974 73.2715 13.1836C73.3366 12.4837 73.3854 11.4828 73.418 10.1807C73.4505 8.8623 73.4505 7.0964 73.418 4.8828C73.1087 5.3874 72.832 5.8919 72.5879 6.3965C72.36 6.8848 72.1566 7.3324 71.9775 7.7393C71.7822 8.2113 71.6032 8.667 71.4404 9.1064C71.2777 9.5622 71.1068 10.0667 70.9277 10.6201C70.765 11.0921 70.5697 11.6536 70.3418 12.3047C70.1302 12.9557 69.8861 13.6719 69.6094 14.4531L68.6816 14.502C68.5514 13.8509 68.4212 13.265 68.291 12.7441C68.1608 12.207 68.0306 11.7513 67.9004 11.377C67.7539 10.9375 67.6074 10.5469 67.4609 10.2051C67.2982 9.8633 67.1191 9.4808 66.9238 9.0576C66.7448 8.6995 66.5251 8.2764 66.2646 7.7881C66.0205 7.2998 65.7357 6.7546 65.4102 6.1523C65.2474 7.8125 65.1497 9.1634 65.1172 10.2051C65.0846 11.2305 65.0846 12.028 65.1172 12.5977C65.1497 13.2813 65.1986 13.7777 65.2637 14.0869C65.3613 14.3636 65.516 14.6729 65.7275 15.0147C65.9066 15.3076 66.1507 15.6576 66.46 16.0645C66.7855 16.4551 67.2005 16.8945 67.7051 17.3828C67.347 17.3828 66.9727 17.3828 66.582 17.3828C66.1914 17.3828 65.8333 17.391 65.5078 17.4072C65.1172 17.4235 64.7347 17.4316 64.3604 17.4316C63.9697 17.4479 63.514 17.4723 62.9932 17.5049C62.5374 17.5374 61.9922 17.57 61.3574 17.6025C60.7227 17.6351 59.9902 17.6921 59.1602 17.7734C59.5182 17.5456 59.8112 17.3258 60.0391 17.1143C60.2669 16.8864 60.446 16.6829 60.5762 16.5039C60.7389 16.2923 60.861 16.0807 60.9424 15.8691C60.9912 15.7389 61.0319 15.4541 61.0645 15.0147C61.1133 14.5752 61.154 14.0381 61.1865 13.4033C61.2354 12.7686 61.2679 12.0605 61.2842 11.2793C61.3167 10.4981 61.3411 9.7087 61.3574 8.9111C61.39 8.0973 61.4144 7.3079 61.4307 6.543C61.4469 5.7617 61.4551 5.0619 61.4551 4.4434C61.4714 3.8086 61.4795 3.27963 61.4795 2.85645C61.4795 2.43327 61.4795 2.16472 61.4795 2.05078C61.4307 1.80664 61.3574 1.5625 61.2598 1.31836C61.1784 1.10677 61.0482 0.88705 60.8691 0.65918C60.6901 0.43132 60.4541 0.21973 60.1611 0.0244203ZM78.9844 0.8545C80.1237 0.88705 81.0677 0.91146 81.8164 0.92774C82.5814 0.92774 83.1999 0.92774 83.6719 0.92774H84.9658H92.2412C92.2738 1.25326 92.2982 1.57064 92.3145 1.87989C92.347 2.17285 92.3633 2.43327 92.3633 2.66114C92.3633 2.93783 92.3551 3.19011 92.3389 3.41797C92.3226 3.6458 92.2982 3.89 92.2656 4.1504C92.2331 4.3783 92.2005 4.6224 92.168 4.8828C92.1354 5.1432 92.0785 5.4118 91.9971 5.6885C91.7692 4.8096 91.46 4.1423 91.0693 3.6865C90.695 3.2308 90.3125 2.89714 89.9219 2.68555C89.4661 2.44141 88.986 2.3112 88.4814 2.29492C87.8141 2.32748 87.2933 2.38444 86.9189 2.46582C86.5446 2.5472 86.2516 2.66114 86.04 2.80762C85.8285 2.9541 85.6657 3.125 85.5518 3.32032C85.4541 3.49935 85.3483 3.7028 85.2344 3.9307C85.1367 4.126 85.0472 4.4271 84.9658 4.834C84.8844 5.1758 84.8031 5.6397 84.7217 6.2256C84.6566 6.8115 84.5833 7.5684 84.502 8.4961C84.9414 8.3659 85.2913 8.2438 85.5518 8.1299C85.8285 8.016 86.0482 7.9183 86.2109 7.8369C86.39 7.7393 86.5202 7.6497 86.6016 7.5684C86.6667 7.4707 86.7643 7.2917 86.8945 7.0313C86.9922 6.8034 87.1224 6.4941 87.2852 6.1035C87.4642 5.7129 87.6758 5.1758 87.9199 4.4922C87.9525 5.2409 87.9688 5.8675 87.9688 6.3721C87.9688 6.8604 87.9769 7.2591 87.9932 7.5684C87.9932 7.9264 88.0013 8.2113 88.0176 8.4229V9.3506C88.0176 9.6924 88.0176 10.1563 88.0176 10.7422C88.0339 11.3119 88.0583 12.0361 88.0908 12.915C87.8955 12.3128 87.7165 11.8408 87.5537 11.499C87.4072 11.141 87.277 10.8724 87.1631 10.6934C87.0329 10.4818 86.9189 10.3353 86.8213 10.2539C86.7074 10.2214 86.5527 10.1888 86.3574 10.1563C86.1784 10.14 85.9505 10.1318 85.6738 10.1318C85.4134 10.1318 85.0798 10.1725 84.6729 10.2539C84.624 11.1491 84.6159 11.8734 84.6484 12.4268C84.6973 12.9639 84.7624 13.3789 84.8438 13.6719C84.9251 14.0137 85.0228 14.2578 85.1367 14.4043C85.2832 14.5508 85.5762 14.6729 86.0156 14.7705C86.4551 14.8519 86.9515 14.8844 87.5049 14.8682C88.0745 14.8356 88.6523 14.738 89.2383 14.5752C89.8242 14.4124 90.3451 14.1439 90.8008 13.7695C91.1426 13.4603 91.5088 13.0697 91.8994 12.5977C92.2249 12.1908 92.583 11.6781 92.9736 11.0596C93.3805 10.4411 93.7793 9.6924 94.1699 8.8135C94.1048 9.5459 94.056 10.1563 94.0234 10.6445C94.0072 11.1165 93.9827 11.499 93.9502 11.792C93.9176 12.1338 93.8932 12.3942 93.877 12.5732C93.877 12.7686 93.8525 13.0453 93.8037 13.4033C93.7712 13.7126 93.7142 14.1357 93.6328 14.6729C93.5677 15.1937 93.4782 15.861 93.3643 16.6748C92.5993 16.6911 91.875 16.7074 91.1914 16.7236C90.5078 16.7236 89.9056 16.7318 89.3848 16.7481C88.7663 16.7643 88.1966 16.7806 87.6758 16.7969C87.1387 16.7969 86.5446 16.8213 85.8936 16.8701C85.3239 16.9027 84.6484 16.9515 83.8672 17.0166C83.1022 17.0817 82.2559 17.1712 81.3281 17.2852C81.4095 16.1784 81.4665 15.1367 81.499 14.1602C81.5479 13.1673 81.5804 12.2966 81.5967 11.5479C81.613 10.6689 81.613 9.8551 81.5967 9.1064C81.6781 7.2347 81.6455 5.721 81.499 4.5654C81.3525 3.40983 81.1816 2.66927 80.9863 2.34375C80.8887 2.22982 80.7503 2.09147 80.5713 1.92871C80.4248 1.79851 80.2214 1.64388 79.9609 1.46485C79.7005 1.28581 79.375 1.08236 78.9844 0.8545Z" fill="black"/>
<path d="M0.561523 24.0977C1.11491 24.179 1.60319 24.236 2.02637 24.2686C2.46582 24.3011 2.83203 24.3337 3.125 24.3662C3.4668 24.3988 3.75977 24.415 4.00391 24.415H4.95605C5.59082 24.415 6.64062 24.3906 8.10547 24.3418C7.7474 24.4557 7.44629 24.6185 7.20215 24.8301C6.97428 25.0417 6.78711 25.2614 6.64062 25.4893C6.46159 25.7497 6.33138 26.0182 6.25 26.2949C6.15234 26.6367 6.06283 27.0925 5.98145 27.6621C5.90007 28.1667 5.81868 28.8258 5.7373 29.6397C5.6722 30.4535 5.6071 31.4707 5.54199 32.6914C6.24186 31.8939 6.85221 31.1859 7.37305 30.5674C7.91016 29.9489 8.37402 29.4036 8.76465 28.9316C9.15527 28.4596 9.48079 28.0527 9.74121 27.7109C10.0179 27.3691 10.2458 27.0762 10.4248 26.832C10.848 26.2786 11.0921 25.9043 11.1572 25.709C11.1735 25.5951 11.1654 25.4567 11.1328 25.2939C11.1003 25.1637 11.0514 25.0091 10.9863 24.8301C10.9212 24.6348 10.8236 24.4232 10.6934 24.1953C11.3444 24.2279 11.8978 24.2523 12.3535 24.2686C12.8255 24.2848 13.2161 24.3011 13.5254 24.3174C13.8835 24.3337 14.1764 24.3418 14.4043 24.3418H15.4297C15.804 24.3418 16.2923 24.3418 16.8945 24.3418C17.4967 24.3255 18.2536 24.3092 19.165 24.293C18.5628 24.4395 17.9932 24.6348 17.4561 24.8789C16.9189 25.1231 16.4388 25.3591 16.0156 25.5869C15.5273 25.8636 15.0716 26.1484 14.6484 26.4414C14.2253 26.7669 13.7533 27.1494 13.2324 27.5889C12.793 27.9632 12.2803 28.4271 11.6943 28.9805C11.1084 29.5176 10.4736 30.1442 9.79004 30.8604C10.5225 32.2926 11.1572 33.4727 11.6943 34.4004C12.2477 35.3119 12.7116 36.0443 13.0859 36.5977C13.5091 37.2487 13.8672 37.7451 14.1602 38.0869C14.4531 38.3962 14.7949 38.7135 15.1855 39.0391C15.5111 39.3158 15.918 39.625 16.4062 39.9668C16.8945 40.2923 17.4561 40.6097 18.0908 40.9189L11.1328 41.2607C11.2305 41.1305 11.2874 40.9759 11.3037 40.7969C11.3363 40.6016 11.3525 40.4225 11.3525 40.2598C11.3525 40.0807 11.3363 39.8854 11.3037 39.6738C11.2386 39.4134 11.0677 38.9902 10.791 38.4043C10.5632 37.8997 10.2132 37.1917 9.74121 36.2803C9.26921 35.3525 8.61816 34.1318 7.78809 32.6182L5.71289 34.791C5.63151 35.3119 5.59082 35.7839 5.59082 36.207C5.59082 36.6302 5.6071 36.9801 5.63965 37.2568C5.68848 37.5986 5.75358 37.8916 5.83496 38.1357C5.93262 38.3799 6.07096 38.6566 6.25 38.9658C6.39648 39.2425 6.5918 39.568 6.83594 39.9424C7.08008 40.3167 7.38932 40.7318 7.76367 41.1875C7.38932 41.0898 7.01497 41.0247 6.64062 40.9922C6.26628 40.9434 5.92448 40.9108 5.61523 40.8945C5.25716 40.8783 4.91536 40.8864 4.58984 40.9189C4.24805 40.9515 3.84928 41.0003 3.39355 41.0654C3.00293 41.1305 2.52279 41.2119 1.95312 41.3096C1.38346 41.4072 0.732422 41.5293 0 41.6758C0.358073 41.4642 0.642904 41.2363 0.854492 40.9922C1.06608 40.7481 1.23698 40.512 1.36719 40.2842C1.51367 40.0238 1.61133 39.7715 1.66016 39.5273C1.69271 39.3158 1.71712 38.86 1.7334 38.1602C1.76595 37.4603 1.78223 36.6465 1.78223 35.7188C1.7985 34.7747 1.7985 33.7819 1.78223 32.7402C1.76595 31.6986 1.74967 30.722 1.7334 29.8105C1.71712 28.8991 1.69271 28.126 1.66016 27.4912C1.64388 26.8402 1.6276 26.4414 1.61133 26.2949C1.5625 26.0671 1.4974 25.8229 1.41602 25.5625C1.33464 25.3346 1.2207 25.0986 1.07422 24.8545C0.94401 24.5941 0.773112 24.3418 0.561523 24.0977ZM16.2842 24.708C16.8376 24.7731 17.3014 24.8219 17.6758 24.8545C18.0664 24.8708 18.3838 24.8952 18.6279 24.9277C18.9209 24.9603 19.1488 24.9766 19.3115 24.9766C19.4906 24.9928 19.7591 24.9847 20.1172 24.9522C20.4264 24.9196 20.8415 24.8789 21.3623 24.8301C21.8994 24.7813 22.583 24.708 23.4131 24.6104C23.0387 24.9359 22.7376 25.2533 22.5098 25.5625C22.2982 25.8555 22.1354 26.1159 22.0215 26.3438C21.875 26.6204 21.7855 26.8809 21.7529 27.125C21.6878 27.5156 21.6309 28.0527 21.582 28.7363C21.5495 29.4036 21.5169 30.1361 21.4844 30.9336C21.4518 31.7311 21.4355 32.5531 21.4355 33.3994C21.4355 34.2458 21.4437 35.0514 21.46 35.8164C21.4925 36.5651 21.5413 37.2324 21.6064 37.8184C21.6878 38.4043 21.7855 38.8275 21.8994 39.0879C22.0622 39.3809 22.2331 39.6738 22.4121 39.9668C22.5749 40.2109 22.7702 40.4632 22.998 40.7236C23.2259 40.9841 23.4863 41.1956 23.7793 41.3584C22.819 41.3096 22.054 41.2852 21.4844 41.2852H20.6055C20.3451 41.2852 20.0114 41.3014 19.6045 41.334C19.2627 41.3665 18.8314 41.3991 18.3105 41.4316C17.7897 41.4642 17.1631 41.513 16.4307 41.5781C16.805 41.1712 17.098 40.7806 17.3096 40.4063C17.5212 40.0319 17.6921 39.7064 17.8223 39.4297C17.9688 39.1042 18.0664 38.7949 18.1152 38.502C18.1803 38.0788 18.2292 37.5579 18.2617 36.9395C18.3105 36.3047 18.3431 35.6292 18.3594 34.9131C18.3757 34.1807 18.3757 33.4401 18.3594 32.6914C18.3594 31.9264 18.3431 31.194 18.3105 30.4941C18.278 29.7943 18.2292 29.1595 18.1641 28.5898C18.1152 28.0202 18.0501 27.5645 17.9688 27.2227C17.9199 27.0111 17.8223 26.7751 17.6758 26.5147C17.5456 26.2868 17.3665 26.0264 17.1387 25.7334C16.9271 25.4242 16.6423 25.0824 16.2842 24.708ZM23.7793 24.2197C24.5117 24.3499 25.1139 24.4395 25.5859 24.4883C26.0579 24.5371 26.4404 24.5778 26.7334 24.6104C27.0752 24.6429 27.3438 24.651 27.5391 24.6348H28.2715C28.5319 24.6348 28.8574 24.6348 29.248 24.6348C29.6549 24.6185 30.1595 24.6104 30.7617 24.6104C31.1035 25.4079 31.4128 26.1403 31.6895 26.8076C31.9824 27.4749 32.2266 28.0446 32.4219 28.5166C32.6497 29.0863 32.8613 29.599 33.0566 30.0547C33.2845 30.6244 33.5286 31.251 33.7891 31.9346C34.0495 32.6182 34.2855 33.2611 34.4971 33.8633C34.7249 34.4655 34.9121 34.9619 35.0586 35.3525C35.2051 35.7432 35.2783 35.9222 35.2783 35.8897C35.2783 35.8734 35.2865 35.7106 35.3027 35.4014C35.319 35.0758 35.3353 34.6771 35.3516 34.2051C35.3678 33.7168 35.3841 33.1878 35.4004 32.6182C35.4329 32.0322 35.4492 31.4707 35.4492 30.9336C35.4655 30.3802 35.4736 29.8757 35.4736 29.4199C35.4736 28.9642 35.4574 28.6224 35.4248 28.3945C35.376 28.1178 35.2783 27.8005 35.1318 27.4424C35.0016 27.1331 34.8226 26.7669 34.5947 26.3438C34.3669 25.9043 34.0495 25.4079 33.6426 24.8545C34.3099 24.8708 34.8551 24.8789 35.2783 24.8789C35.7015 24.8789 36.0433 24.8789 36.3037 24.8789C36.5967 24.8789 36.8245 24.8708 36.9873 24.8545C37.1989 24.8545 37.4593 24.8382 37.7686 24.8057C38.0452 24.7731 38.387 24.7487 38.7939 24.7324C39.2171 24.6999 39.738 24.6592 40.3564 24.6104C39.9984 24.9359 39.7135 25.2451 39.502 25.5381C39.2904 25.8311 39.1195 26.0915 38.9893 26.3193C38.8428 26.5798 38.7451 26.8239 38.6963 27.0518C38.6312 27.3447 38.5742 27.8249 38.5254 28.4922C38.4928 29.1432 38.4521 29.8757 38.4033 30.6895C38.3708 31.5033 38.3382 32.3496 38.3057 33.2285C38.2731 34.1074 38.2406 34.9131 38.208 35.6455C38.208 36.1989 38.1917 36.793 38.1592 37.4277C38.1266 37.9648 38.0941 38.5752 38.0615 39.2588C38.029 39.9261 37.9883 40.6016 37.9395 41.2852L35.7666 41.334C35.1318 40.2109 34.5947 39.2507 34.1553 38.4531C33.7321 37.6393 33.3822 36.972 33.1055 36.4512C32.7962 35.849 32.5358 35.3444 32.3242 34.9375C32.1452 34.5469 31.9092 34.0993 31.6162 33.5947C31.3721 33.1716 31.0628 32.6507 30.6885 32.0322C30.3304 31.4137 29.8991 30.7057 29.3945 29.9082C29.3457 31.0313 29.3213 31.9915 29.3213 32.7891C29.3376 33.5703 29.362 34.2214 29.3945 34.7422C29.4434 35.3444 29.5003 35.849 29.5654 36.2559C29.6468 36.6465 29.7607 37.0859 29.9072 37.5742C30.0374 37.9974 30.1921 38.4938 30.3711 39.0635C30.5664 39.6331 30.8024 40.276 31.0791 40.9922C30.1188 40.9434 29.4027 40.9189 28.9307 40.9189H28.1982C27.9704 40.9189 27.6611 40.9434 27.2705 40.9922C26.945 41.0247 26.4974 41.0736 25.9277 41.1387C25.3743 41.2038 24.6826 41.2933 23.8525 41.4072C24.2432 40.9352 24.5524 40.5039 24.7803 40.1133C25.0244 39.7064 25.2116 39.3646 25.3418 39.0879C25.5046 38.7624 25.6185 38.4775 25.6836 38.2334C25.7324 37.973 25.765 37.5254 25.7812 36.8906C25.7975 36.2396 25.7975 35.5072 25.7812 34.6934C25.7812 33.8633 25.765 32.9925 25.7324 32.0811C25.7161 31.1696 25.6917 30.3232 25.6592 29.542C25.6266 28.7607 25.5859 28.0934 25.5371 27.54C25.5046 26.9867 25.4801 26.6449 25.4639 26.5147C25.415 26.3031 25.3174 26.0752 25.1709 25.8311C25.0407 25.6195 24.8698 25.3835 24.6582 25.1231C24.4466 24.8464 24.1536 24.5453 23.7793 24.2197ZM49.5361 23.9023C50.5778 23.8861 51.4323 24.0732 52.0996 24.4639C52.7832 24.8545 53.3366 25.3184 53.7598 25.8555C54.1829 26.3926 54.5085 26.9378 54.7363 27.4912C54.9642 28.0283 55.1432 28.4515 55.2734 28.7607C55.306 28.8421 55.3711 28.9479 55.4688 29.0781C55.5501 29.1921 55.6641 29.3304 55.8105 29.4932C55.9733 29.6397 56.1768 29.8105 56.4209 30.0059C55.9163 30.0221 55.4688 30.0384 55.0781 30.0547C54.6875 30.0547 54.3538 30.0628 54.0771 30.0791C53.7679 30.0954 53.4912 30.1117 53.2471 30.1279C53.0029 30.1442 52.7018 30.1686 52.3438 30.2012C52.0182 30.2337 51.6195 30.2663 51.1475 30.2988C50.6755 30.3314 50.0977 30.3802 49.4141 30.4453C49.821 29.957 50.1383 29.5257 50.3662 29.1514C50.6104 28.7607 50.7894 28.4189 50.9033 28.126C51.0335 27.8167 51.1068 27.5482 51.123 27.3203C51.1556 27.0925 51.1475 26.8971 51.0986 26.7344C51.001 26.36 50.7487 26.0915 50.3418 25.9287C49.1699 25.6032 48.1445 25.8636 47.2656 26.71C46.403 27.54 45.7845 28.9072 45.4102 30.8115C45.2311 31.7555 45.0602 32.7402 44.8975 33.7656C44.751 34.7747 44.694 35.7025 44.7266 36.5488C44.7591 37.3789 44.9219 38.0544 45.2148 38.5752C45.5078 39.096 46.0124 39.3402 46.7285 39.3076C47.4284 39.2751 48.0225 39.1611 48.5107 38.9658C48.999 38.7542 49.3896 38.5101 49.6826 38.2334C49.9756 37.9404 50.179 37.6312 50.293 37.3057C50.4232 36.9639 50.472 36.6465 50.4395 36.3535C50.3743 36.1257 50.2035 35.8815 49.9268 35.6211C49.6826 35.3932 49.3164 35.141 48.8281 34.8643C48.3398 34.5713 47.64 34.2702 46.7285 33.9609C47.5911 33.9121 48.2992 33.8796 48.8525 33.8633C49.4222 33.8307 49.8698 33.7982 50.1953 33.7656C50.5859 33.7331 50.887 33.7087 51.0986 33.6924C51.2939 33.6761 51.5788 33.6598 51.9531 33.6436C52.2786 33.6273 52.6937 33.6191 53.1982 33.6191C53.7191 33.6191 54.3701 33.611 55.1514 33.5947C54.8584 33.8877 54.6305 34.1563 54.4678 34.4004C54.3864 34.5306 54.3132 34.6445 54.248 34.7422C54.1829 34.905 54.1585 35.2386 54.1748 35.7432C54.1748 36.1663 54.2074 36.793 54.2725 37.6231C54.3376 38.4369 54.4596 39.5518 54.6387 40.9678L51.3916 41.4072L51.5381 38.1113C51.1637 39.0065 50.6917 39.6738 50.1221 40.1133C49.5687 40.5527 49.0397 40.862 48.5352 41.041C47.9329 41.2526 47.3063 41.3503 46.6553 41.334C45.8089 41.2526 44.9626 41.0573 44.1162 40.7481C43.2699 40.4388 42.5212 39.9668 41.8701 39.332C41.2191 38.681 40.7145 37.8428 40.3564 36.8174C40.0146 35.792 39.9089 34.5225 40.0391 33.0088C40.1855 31.4951 40.5436 30.1768 41.1133 29.0537C41.6992 27.9144 42.4235 26.9704 43.2861 26.2217C44.1488 25.473 45.1172 24.9115 46.1914 24.5371C47.2819 24.1465 48.3968 23.9349 49.5361 23.9023ZM55.2979 24.1221C55.8675 24.2035 56.3639 24.2686 56.7871 24.3174C57.2103 24.3662 57.5602 24.4069 57.8369 24.4395C58.1624 24.472 58.4391 24.4964 58.667 24.5127C58.9274 24.5453 59.2448 24.529 59.6191 24.4639C60.0098 24.3988 60.4248 24.3337 60.8643 24.2686C61.3037 24.1872 61.7594 24.1221 62.2314 24.0732C62.7035 24.0244 63.1592 24.0244 63.5986 24.0732C63.8916 24.1058 64.266 24.1709 64.7217 24.2686C65.1774 24.3662 65.6576 24.5208 66.1621 24.7324C66.6829 24.944 67.2038 25.2207 67.7246 25.5625C68.2454 25.9043 68.7174 26.3356 69.1406 26.8564C69.5638 27.3773 69.9137 27.9958 70.1904 28.7119C70.4671 29.4281 70.6217 30.2663 70.6543 31.2266C70.7031 32.6589 70.5729 33.9609 70.2637 35.1328C69.9544 36.3047 69.4743 37.3057 68.8232 38.1357C68.1885 38.9658 67.3828 39.6169 66.4062 40.0889C65.4297 40.5609 64.2904 40.8213 62.9883 40.8701C61.9954 40.9515 61.0189 41.0247 60.0586 41.0898C59.6517 41.1224 59.2204 41.1468 58.7646 41.1631C58.3252 41.1794 57.8857 41.1956 57.4463 41.2119C57.0068 41.2119 56.5837 41.2038 56.1768 41.1875C55.7699 41.1712 55.3955 41.1468 55.0537 41.1143C55.4281 40.9352 55.7292 40.7562 55.957 40.5772C56.2012 40.3981 56.3883 40.2435 56.5186 40.1133C56.665 39.9505 56.7708 39.804 56.8359 39.6738C56.8685 39.4948 56.9173 39.1449 56.9824 38.624C57.0312 38.1846 57.0964 37.5579 57.1777 36.7441C57.2591 35.9303 57.3568 34.8236 57.4707 33.4238L57.6172 31.6904C57.6986 30.6162 57.7311 29.7373 57.7148 29.0537C57.7148 28.3701 57.6986 27.833 57.666 27.4424C57.6172 26.9867 57.5521 26.653 57.4707 26.4414C57.4056 26.2624 57.2835 26.0508 57.1045 25.8066C56.9417 25.6113 56.7139 25.3753 56.4209 25.0986C56.1442 24.8057 55.7699 24.4801 55.2979 24.1221ZM60.4492 33.1064C60.4818 34.555 60.555 35.6699 60.6689 36.4512C60.7992 37.2161 60.9375 37.7858 61.084 38.1602C61.263 38.5833 61.4583 38.8356 61.6699 38.917C61.9792 38.917 62.3291 38.7868 62.7197 38.5264C63.1104 38.2497 63.4928 37.8346 63.8672 37.2813C64.2578 36.7279 64.6077 36.0361 64.917 35.2061C65.2425 34.376 65.4785 33.4076 65.625 32.3008C65.7715 31.194 65.7308 30.2175 65.5029 29.3711C65.2751 28.5247 64.974 27.8167 64.5996 27.2471C64.2253 26.6611 63.8428 26.2217 63.4521 25.9287C63.0615 25.6195 62.7686 25.4648 62.5732 25.4648C62.3454 25.4648 62.1419 25.53 61.9629 25.6602C61.7839 25.7741 61.5316 26.0426 61.2061 26.4658C61.0433 26.6937 60.8968 27.0192 60.7666 27.4424C60.6527 27.8167 60.555 28.3132 60.4736 28.9316C60.3923 29.5501 60.3678 30.3477 60.4004 31.3242L60.4492 33.1064ZM80.5664 23.1211C81.4453 23.1536 82.3324 23.3164 83.2275 23.6094C84.139 23.8861 84.9772 24.3418 85.7422 24.9766C86.5072 25.5951 87.1582 26.4007 87.6953 27.3936C88.2324 28.3701 88.5661 29.5664 88.6963 30.9824C88.8102 32.138 88.6637 33.2855 88.2568 34.4248C87.8662 35.5479 87.321 36.5814 86.6211 37.5254C85.9212 38.4694 85.1156 39.2751 84.2041 39.9424C83.2926 40.5934 82.3812 41.0247 81.4697 41.2363C80.9163 41.3665 80.306 41.3828 79.6387 41.2852C78.9876 41.1712 78.3203 40.9678 77.6367 40.6748C76.9694 40.3656 76.3102 39.9749 75.6592 39.5029C75.0244 39.0309 74.4466 38.4938 73.9258 37.8916C73.4049 37.2731 72.9655 36.6058 72.6074 35.8897C72.2656 35.1735 72.054 34.4248 71.9727 33.6436C71.8913 32.9925 71.8831 32.2764 71.9482 31.4951C72.0296 30.6976 72.1842 29.9082 72.4121 29.127C72.6562 28.3294 72.9899 27.5645 73.4131 26.832C73.8525 26.0833 74.4059 25.4323 75.0732 24.8789C75.7406 24.3092 76.5218 23.8698 77.417 23.5605C78.3285 23.235 79.3783 23.0885 80.5664 23.1211ZM76.1963 33.0088C75.9684 34.7503 76.1312 36.1501 76.6846 37.208C77.2542 38.266 78.1087 38.9089 79.248 39.1367C79.8014 39.2507 80.3304 39.1367 80.835 38.7949C81.3558 38.4369 81.8278 37.9242 82.251 37.2568C82.6742 36.5895 83.0404 35.8083 83.3496 34.9131C83.6589 34.0179 83.8867 33.082 84.0332 32.1055C84.1797 31.1289 84.1878 30.25 84.0576 29.4688C83.9437 28.6712 83.7402 27.9958 83.4473 27.4424C83.1543 26.8727 82.7962 26.4333 82.373 26.124C81.9661 25.8148 81.543 25.6439 81.1035 25.6113C80.3385 25.5625 79.6712 25.766 79.1016 26.2217C78.5319 26.6611 78.0518 27.2389 77.6611 27.9551C77.2705 28.6712 76.9531 29.4769 76.709 30.3721C76.4811 31.2673 76.3102 32.1462 76.1963 33.0088ZM89.1113 24.0244C89.6322 24.0407 90.0879 24.0488 90.4785 24.0488C90.8691 24.0326 91.1865 24.0244 91.4307 24.0244H92.1387C92.3177 24.0081 92.5374 24 92.7979 24C93.0257 24 93.3024 24 93.6279 24C93.9535 24 94.3278 24.0081 94.751 24.0244C94.8812 24.4801 95.0277 24.9277 95.1904 25.3672C95.3695 25.7904 95.5241 26.1729 95.6543 26.5147C95.8171 26.9216 95.9798 27.304 96.1426 27.6621C96.3053 28.0202 96.5007 28.4515 96.7285 28.9561C96.9238 29.3792 97.1598 29.9001 97.4365 30.5186C97.7132 31.1208 98.0387 31.8125 98.4131 32.5938C98.5921 32.0892 98.7549 31.6253 98.9014 31.2022C99.0641 30.779 99.2025 30.4128 99.3164 30.1035C99.4466 29.7454 99.5524 29.4199 99.6338 29.127C99.7152 28.834 99.8047 28.4759 99.9023 28.0527C99.9837 27.6947 100.073 27.2633 100.171 26.7588C100.285 26.2542 100.399 25.6683 100.513 25.001C100.985 25.001 101.408 25.001 101.782 25.001C102.157 25.001 102.482 24.9928 102.759 24.9766C103.068 24.9766 103.345 24.9684 103.589 24.9522C103.849 24.9522 104.199 24.9359 104.639 24.9033C105.013 24.8708 105.509 24.8464 106.128 24.8301C106.763 24.7975 107.544 24.7568 108.472 24.708C108.13 24.9522 107.853 25.1963 107.642 25.4404C107.446 25.6683 107.292 25.8717 107.178 26.0508C107.048 26.2624 106.966 26.4658 106.934 26.6611C106.901 26.8239 106.868 27.1982 106.836 27.7842C106.82 28.3701 106.795 29.07 106.763 29.8838C106.746 30.6813 106.73 31.5358 106.714 32.4473C106.714 33.3587 106.722 34.2214 106.738 35.0352C106.755 35.849 106.779 36.557 106.812 37.1592C106.86 37.7451 106.925 38.1195 107.007 38.2822C107.121 38.4775 107.275 38.7054 107.471 38.9658C107.65 39.1937 107.878 39.4541 108.154 39.7471C108.447 40.04 108.83 40.3656 109.302 40.7236C108.553 40.7562 107.926 40.7806 107.422 40.7969C106.934 40.8132 106.527 40.8294 106.201 40.8457C105.827 40.862 105.526 40.8701 105.298 40.8701C105.054 40.8701 104.72 40.8783 104.297 40.8945C103.923 40.9108 103.426 40.9352 102.808 40.9678C102.189 40.9841 101.392 41.0166 100.415 41.0654C100.643 40.805 100.854 40.5446 101.05 40.2842C101.245 40.0238 101.408 39.7878 101.538 39.5762C101.701 39.332 101.839 39.096 101.953 38.8682C102.067 38.5589 102.157 37.9974 102.222 37.1836C102.287 36.4837 102.336 35.4828 102.368 34.1807C102.401 32.8623 102.401 31.0964 102.368 28.8828C102.059 29.3874 101.782 29.8919 101.538 30.3965C101.31 30.8848 101.107 31.3324 100.928 31.7393C100.732 32.2113 100.553 32.667 100.391 33.1064C100.228 33.5622 100.057 34.0667 99.8779 34.6201C99.7152 35.0921 99.5199 35.6536 99.292 36.3047C99.0804 36.9557 98.8363 37.6719 98.5596 38.4531L97.6318 38.502C97.5016 37.8509 97.3714 37.265 97.2412 36.7441C97.111 36.207 96.9808 35.7513 96.8506 35.377C96.7041 34.9375 96.5576 34.5469 96.4111 34.2051C96.2484 33.8633 96.0693 33.4808 95.874 33.0576C95.695 32.6995 95.4753 32.2764 95.2148 31.7881C94.9707 31.2998 94.6859 30.7546 94.3604 30.1523C94.1976 31.8125 94.0999 33.1634 94.0674 34.2051C94.0348 35.2305 94.0348 36.028 94.0674 36.5977C94.0999 37.2813 94.1488 37.7777 94.2139 38.0869C94.3115 38.3636 94.4661 38.6729 94.6777 39.0147C94.8568 39.3076 95.1009 39.6576 95.4102 40.0645C95.7357 40.4551 96.1507 40.8945 96.6553 41.3828C96.2972 41.3828 95.9229 41.3828 95.5322 41.3828C95.1416 41.3828 94.7835 41.391 94.458 41.4072C94.0674 41.4235 93.6849 41.4316 93.3105 41.4316C92.9199 41.4479 92.4642 41.4723 91.9434 41.5049C91.4876 41.5374 90.9424 41.57 90.3076 41.6025C89.6729 41.6351 88.9404 41.6921 88.1104 41.7734C88.4684 41.5456 88.7614 41.3258 88.9893 41.1143C89.2171 40.8864 89.3962 40.6829 89.5264 40.5039C89.6891 40.2923 89.8112 40.0807 89.8926 39.8691C89.9414 39.7389 89.9821 39.4541 90.0146 39.0147C90.0635 38.5752 90.1042 38.0381 90.1367 37.4033C90.1855 36.7686 90.2181 36.0605 90.2344 35.2793C90.2669 34.4981 90.2913 33.7087 90.3076 32.9111C90.3402 32.0973 90.3646 31.3079 90.3809 30.543C90.3971 29.7617 90.4053 29.0619 90.4053 28.4434C90.4215 27.8086 90.4297 27.2796 90.4297 26.8564C90.4297 26.4333 90.4297 26.1647 90.4297 26.0508C90.3809 25.8066 90.3076 25.5625 90.21 25.3184C90.1286 25.1068 89.9984 24.887 89.8193 24.6592C89.6403 24.4313 89.4043 24.2197 89.1113 24.0244Z" fill="black"/>
</svg>
